<svg width="64" height="64" viewBox="0 0 64 64" fill="none" xmlns="http://www.w3.org/2000/svg">
<path d="M37.8065 15.9726C38.1367 16.4785 38.8486 16.5526 39.2758 16.1254L49.655 5.74625C50.3239 5.0773 51.4532 5.68883 51.2585 6.61462L47.441 24.7706C47.3167 25.3618 47.7678 25.9176 48.3719 25.9176H63.047C63.993 25.9176 64.3591 27.1485 63.5669 27.6655L48.0274 37.8065C47.5215 38.1367 47.4474 38.8486 47.8746 39.2758L58.2538 49.655C58.9227 50.3239 58.3112 51.4532 57.3854 51.2585L39.2294 47.441C38.6382 47.3167 38.0824 47.7678 38.0824 48.3719V63.047C38.0824 63.993 36.8515 64.3591 36.3345 63.5669L26.1935 48.0274C25.8633 47.5215 25.1513 47.4474 24.7242 47.8746L14.345 58.2538C13.6761 58.9227 12.5468 58.3112 12.7415 57.3854L16.559 39.2294C16.6833 38.6382 16.2322 38.0824 15.6281 38.0824H0.95299C0.00697892 38.0824 -0.359122 36.8515 0.433113 36.3345L15.9726 26.1935C16.4785 25.8633 16.5526 25.1513 16.1254 24.7242L5.74625 14.345C5.0773 13.6761 5.68883 12.5468 6.61462 12.7415L24.7706 16.559C25.3618 16.6833 25.9176 16.2322 25.9176 15.6281V0.95299C25.9176 0.00697892 27.1485 -0.359122 27.6655 0.433113L37.8065 15.9726Z" fill="#E4FA16"/>
</svg>
