<svg width="121" height="21" viewBox="0 0 121 21" fill="none" xmlns="http://www.w3.org/2000/svg">
<path d="M22.2217 6.55176C23.2256 6.55178 24.05 6.73867 24.6943 7.11328C25.3535 7.48787 25.8406 8.01233 26.1553 8.68652C26.4849 9.34585 26.6494 10.1328 26.6494 11.0469V17.7451H25.1436L24.9863 16.2617H24.9189C24.3195 16.7412 23.6448 17.1534 22.8955 17.498C22.1465 17.8426 21.3825 18.0156 20.6035 18.0156C19.9292 18.0156 19.3067 17.895 18.7373 17.6553C18.1679 17.4005 17.7183 17.0407 17.3887 16.5762C17.0591 16.1117 16.8945 15.5573 16.8945 14.9131C16.8946 13.6844 17.5086 12.7553 18.7373 12.126C19.9661 11.4816 21.9894 11.047 24.8066 10.8223C24.7917 10.3278 24.6869 9.87069 24.4922 9.45117C24.3124 9.0316 24.0123 8.70168 23.5928 8.46191C23.1733 8.20722 22.6113 8.08013 21.9072 8.08008C21.4427 8.08008 20.9772 8.14736 20.5127 8.28223C20.0633 8.4021 19.6284 8.56664 19.209 8.77637C18.8046 8.9711 18.4305 9.17408 18.0859 9.38379L17.3662 8.125C17.7259 7.88523 18.1604 7.64504 18.6699 7.40527C19.1943 7.15059 19.7562 6.94866 20.3555 6.79883C20.9549 6.63399 21.5773 6.55176 22.2217 6.55176ZM34.2051 6.77246H39.5771V8.32715H34.2051V13.5195C34.2051 14.1637 34.2874 14.7107 34.4521 15.1602C34.617 15.6097 34.902 15.9471 35.3066 16.1719C35.7112 16.3966 36.2655 16.5098 36.9697 16.5098C37.4942 16.5098 37.9662 16.4639 38.3857 16.374C38.8053 16.2841 39.21 16.1645 39.5996 16.0146L40.0039 17.3633C39.5095 17.5431 38.985 17.6936 38.4307 17.8135C37.8913 17.9483 37.277 18.0156 36.5879 18.0156C35.524 18.0156 34.6847 17.8277 34.0703 17.4531C33.4559 17.0635 33.0139 16.5317 32.7441 15.8574C32.4894 15.1831 32.3613 14.3962 32.3613 13.4971V8.32715H29.2822V6.88477L32.4297 6.77246L32.6768 3.31445H34.2051V6.77246ZM48.3574 6.55176C49.3614 6.55176 50.1857 6.73865 50.8301 7.11328C51.4893 7.48787 51.9763 8.01232 52.291 8.68652C52.6207 9.34585 52.7851 10.1328 52.7852 11.0469V17.7451H51.2793L51.1221 16.2617H51.0547C50.4553 16.7412 49.7805 17.1534 49.0312 17.498C48.2822 17.8426 47.5183 18.0156 46.7393 18.0156C46.0649 18.0156 45.4425 17.895 44.873 17.6553C44.3038 17.4005 43.854 17.0406 43.5244 16.5762C43.1949 16.1117 43.0303 15.5573 43.0303 14.9131C43.0303 13.6844 43.6444 12.7553 44.873 12.126C46.1018 11.4816 48.1251 11.047 50.9424 10.8223C50.9274 10.3278 50.8227 9.87071 50.6279 9.45117C50.4481 9.03158 50.1481 8.70168 49.7285 8.46191C49.309 8.20723 48.7471 8.08011 48.043 8.08008C47.5785 8.08008 47.1139 8.14742 46.6494 8.28223C46.2 8.40207 45.7652 8.56668 45.3457 8.77637C44.9411 8.97116 44.5663 9.17402 44.2217 9.38379L43.502 8.125C43.8616 7.88524 44.2962 7.64503 44.8057 7.40527C45.3302 7.15052 45.8928 6.94868 46.4922 6.79883C47.0915 6.63406 47.7132 6.55176 48.3574 6.55176ZM88.1514 6.55176C89.1103 6.55181 89.9946 6.77608 90.8037 7.22559C91.6278 7.67514 92.2868 8.32753 92.7812 9.18164C93.2907 10.0358 93.5459 11.077 93.5459 12.3057C93.5459 13.5045 93.2908 14.5316 92.7812 15.3857C92.2868 16.2396 91.6276 16.8913 90.8037 17.3408C89.9946 17.7903 89.1103 18.0156 88.1514 18.0156C87.1924 18.0156 86.3007 17.7903 85.4766 17.3408C84.6675 16.8913 84.0075 16.2397 83.498 15.3857C83.0035 14.5316 82.7559 13.5045 82.7559 12.3057C82.7559 11.077 83.0036 10.0357 83.498 9.18164C84.0075 8.32748 84.6674 7.67515 85.4766 7.22559C86.3006 6.77617 87.1925 6.55176 88.1514 6.55176ZM114.107 6.55176C115.111 6.55179 115.936 6.73868 116.58 7.11328C117.239 7.48788 117.726 8.01234 118.041 8.68652C118.371 9.34585 118.535 10.1328 118.535 11.0469V17.7451H117.029L116.872 16.2617H116.805C116.205 16.7412 115.531 17.1534 114.781 17.498C114.032 17.8427 113.267 18.0156 112.488 18.0156C111.814 18.0156 111.192 17.895 110.623 17.6553C110.054 17.4005 109.604 17.0407 109.274 16.5762C108.945 16.1117 108.78 15.5573 108.78 14.9131C108.78 13.6844 109.394 12.7553 110.623 12.126C111.852 11.4816 113.875 11.047 116.692 10.8223C116.677 10.3278 116.572 9.87076 116.377 9.45117C116.197 9.03166 115.898 8.70166 115.479 8.46191C115.059 8.20716 114.496 8.08008 113.792 8.08008C113.328 8.08012 112.863 8.1474 112.398 8.28223C111.949 8.4021 111.514 8.56663 111.095 8.77637C110.69 8.9711 110.316 9.17408 109.972 9.38379L109.252 8.125C109.612 7.88523 110.046 7.64504 110.556 7.40527C111.08 7.1506 111.642 6.94866 112.241 6.79883C112.841 6.63399 113.463 6.55176 114.107 6.55176ZM9.78809 12.2607L11.2041 15.3174H11.249C11.2191 14.5833 11.1667 13.8193 11.0918 13.0254C11.0319 12.2163 11.002 11.4217 11.002 10.6426V3H12.8008V17.7451H10.7324L6.01172 8.48438L4.5957 5.42773H4.55078C4.58075 6.17675 4.62563 6.94076 4.68555 7.71973C4.76047 8.49889 4.79784 9.27097 4.79785 10.0352V17.7451H3V3H5.06836L9.78809 12.2607ZM76.2197 12.2607L77.6357 15.3174H77.6807C77.6507 14.5833 77.5983 13.8193 77.5234 13.0254C77.4635 12.2162 77.4336 11.4218 77.4336 10.6426V3H79.2324V17.7451H77.1641L72.4434 8.48438L71.0273 5.42773H70.9824C71.0124 6.17694 71.0573 6.94153 71.1172 7.7207C71.1921 8.49968 71.2295 9.27115 71.2295 10.0352V17.7451H69.4316V3H71.5L76.2197 12.2607ZM99.8311 13.0254C100.056 13.5647 100.265 14.1042 100.46 14.6436C100.67 15.183 100.873 15.7148 101.067 16.2393H101.157C101.352 15.7149 101.546 15.1829 101.741 14.6436C101.936 14.1042 102.139 13.5648 102.349 13.0254L104.866 6.82129H106.642L102.124 17.7451H100.056L95.4473 6.82129H97.3135L99.8311 13.0254ZM24.8066 12.0361C23.2482 12.171 22.0192 12.3579 21.1201 12.5977C20.236 12.8374 19.6061 13.1449 19.2314 13.5195C18.8719 13.8791 18.6924 14.2989 18.6924 14.7783C18.6924 15.1829 18.8045 15.5203 19.0293 15.79C19.2541 16.0448 19.5466 16.2317 19.9062 16.3516C20.2809 16.4714 20.6781 16.5312 21.0977 16.5312C21.7269 16.5312 22.3486 16.3891 22.9629 16.1045C23.5773 15.8198 24.1922 15.4226 24.8066 14.9131V12.0361ZM50.9424 12.0361C49.3839 12.171 48.155 12.3579 47.2559 12.5977C46.3719 12.8374 45.7428 13.145 45.3682 13.5195C45.0085 13.8792 44.8281 14.2988 44.8281 14.7783C44.8281 15.1829 44.9403 15.5203 45.165 15.79C45.3898 16.0447 45.6824 16.2317 46.042 16.3516C46.4166 16.4714 46.8138 16.5312 47.2334 16.5312C47.8628 16.5312 48.4852 16.3892 49.0996 16.1045C49.7139 15.8198 50.3281 15.4225 50.9424 14.9131V12.0361ZM116.692 12.0361C115.134 12.171 113.905 12.3579 113.006 12.5977C112.122 12.8374 111.492 13.1449 111.117 13.5195C110.758 13.8791 110.578 14.2989 110.578 14.7783C110.578 15.1829 110.69 15.5203 110.915 15.79C111.14 16.0448 111.432 16.2317 111.792 16.3516C112.167 16.4714 112.564 16.5312 112.983 16.5312C113.613 16.5312 114.234 16.3891 114.849 16.1045C115.463 15.8198 116.078 15.4226 116.692 14.9131V12.0361ZM88.1514 8.08008C87.4471 8.08008 86.8321 8.25949 86.3076 8.61914C85.7982 8.96376 85.3934 9.45829 85.0938 10.1025C84.809 10.7319 84.667 11.4665 84.667 12.3057C84.667 13.1299 84.809 13.8569 85.0938 14.4863C85.3934 15.1156 85.7982 15.6101 86.3076 15.9697C86.8321 16.3144 87.4471 16.4863 88.1514 16.4863C88.8555 16.4863 89.4698 16.3143 89.9941 15.9697C90.5186 15.6101 90.9233 15.1156 91.208 14.4863C91.4927 13.8569 91.6348 13.1299 91.6348 12.3057C91.6348 11.4665 91.4927 10.7319 91.208 10.1025C90.9233 9.45833 90.5185 8.96374 89.9941 8.61914C89.4698 8.25963 88.8555 8.08014 88.1514 8.08008Z" fill="white"/>
</svg>
